<?xml version="1.0" standalone="no"?>
<!DOCTYPE svg PUBLIC "-//W3C//DTD SVG 20010904//EN"
 "http://www.w3.org/TR/2001/REC-SVG-20010904/DTD/svg10.dtd">
<svg version="1.0" xmlns="http://www.w3.org/2000/svg"
 width="100.000000pt" height="125.000000pt" viewBox="0 0 100.000000 125.000000"
 preserveAspectRatio="xMidYMid meet">

<g transform="translate(0.000000,125.000000) scale(0.100000,-0.100000)"
fill="#000000" stroke="none">
<path d="M355 1203 c-128 -46 -222 -129 -282 -250 -38 -77 -38 -77 -38 -203 0
-126 0 -126 38 -204 51 -101 122 -172 223 -223 78 -38 78 -38 204 -38 125 0
126 0 202 38 101 50 175 123 225 223 38 78 38 78 38 203 0 125 0 127 -37 202
-50 101 -126 178 -227 227 -71 34 -83 37 -186 39 -86 3 -121 -1 -160 -14z
m251 -37 c231 -61 373 -306 308 -527 -23 -78 -50 -125 -102 -181 -170 -182
-451 -183 -621 -3 -166 176 -160 439 14 604 111 105 260 145 401 107z"/>
<path d="M413 1098 c-61 -13 -161 -84 -200 -142 -147 -215 -15 -517 240 -552
l47 -7 0 357 0 356 -22 -1 c-13 -1 -42 -5 -65 -11z"/>
<path d="M5 130 c-8 -13 3 -30 18 -30 7 0 6 4 -3 10 -13 9 -13 11 0 20 9 6 10
10 3 10 -6 0 -15 -4 -18 -10z"/>
<path d="M510 130 c12 -8 13 -11 1 -19 -9 -6 -6 -8 13 -8 16 0 26 5 26 14 0 8
-4 12 -9 8 -5 -3 -12 -1 -16 5 -3 5 -12 10 -18 10 -7 0 -6 -4 3 -10z"/>
<path d="M41 114 c0 -11 3 -14 6 -6 3 7 2 16 -1 19 -3 4 -6 -2 -5 -13z"/>
<path d="M60 116 c0 -9 5 -16 10 -16 6 0 10 4 10 9 0 6 -4 13 -10 16 -5 3 -10
-1 -10 -9z"/>
<path d="M90 113 c0 -17 16 -17 23 0 3 8 -1 14 -9 14 -8 0 -14 -6 -14 -14z"/>
<path d="M135 121 c-12 -11 -3 -18 21 -18 16 0 21 2 14 7 -9 6 -9 9 1 13 8 3
4 4 -9 4 -13 -1 -25 -3 -27 -6z"/>
<path d="M200 115 c0 -12 6 -16 20 -12 10 3 21 0 24 -7 2 -6 5 -3 5 7 1 9 -3
17 -8 17 -5 0 -16 3 -25 6 -11 4 -16 1 -16 -11z"/>
<path d="M310 115 c0 -8 5 -15 10 -15 6 0 10 7 10 15 0 8 -4 15 -10 15 -5 0
-10 -7 -10 -15z"/>
<path d="M347 118 c-6 -4 -8 -10 -4 -15 5 -4 12 -1 17 7 7 11 10 11 10 2 0 -9
14 -12 48 -11 26 1 52 5 57 8 17 10 -49 18 -69 8 -12 -6 -16 -6 -12 1 7 12
-28 12 -47 0z"/>
<path d="M566 121 c-4 -7 -5 -15 -2 -18 9 -9 19 4 14 18 -4 11 -6 11 -12 0z"/>
<path d="M602 122 c-16 -5 -15 -19 3 -26 8 -3 21 2 30 10 8 9 15 11 15 5 0 -6
7 -11 15 -11 8 0 15 8 14 18 0 10 -3 12 -6 4 -2 -6 -10 -9 -16 -5 -14 8 -38
11 -55 5z"/>
<path d="M360 69 c0 -11 5 -17 10 -14 6 4 8 12 4 18 -3 7 2 3 10 -7 9 -11 16
-15 16 -10 0 12 -21 34 -32 34 -4 0 -8 -9 -8 -21z"/>
<path d="M1 64 c0 -11 3 -14 6 -6 3 7 2 16 -1 19 -3 4 -6 -2 -5 -13z"/>
<path d="M21 64 c0 -11 3 -14 6 -6 3 7 2 16 -1 19 -3 4 -6 -2 -5 -13z"/>
<path d="M40 65 c0 -8 4 -15 8 -15 5 0 9 7 9 15 0 8 -4 15 -9 15 -4 0 -8 -7
-8 -15z"/>
<path d="M70 63 c0 -15 2 -16 10 -3 9 13 11 13 21 0 9 -13 10 -13 6 0 -6 22
-37 25 -37 3z"/>
<path d="M130 65 c0 -8 5 -15 10 -15 6 0 10 6 10 13 0 8 3 8 8 2 9 -13 31 -13
35 -1 1 5 -13 10 -30 12 -24 3 -33 0 -33 -11z"/>
<path d="M220 70 c0 -12 27 -20 66 -20 20 0 34 5 34 13 0 8 4 7 10 -3 6 -9 10
-10 10 -3 0 17 -14 23 -30 13 -8 -5 -22 -4 -33 2 -15 8 -18 7 -12 -3 6 -8 4
-10 -6 -3 -19 12 -39 14 -39 4z"/>
<path d="M414 71 c-10 -10 -3 -23 10 -18 8 3 17 1 20 -6 3 -9 5 -9 5 0 1 7 11
10 24 7 15 -2 24 1 24 9 0 11 -72 18 -83 8z"/>
<path d="M511 64 c0 -11 3 -14 6 -6 3 7 2 16 -1 19 -3 4 -6 -2 -5 -13z"/>
</g>
</svg>
